<?xml version="1.0" encoding="UTF-8" standalone="no" ?>
<!DOCTYPE svg PUBLIC "-//W3C//DTD SVG 1.1//EN" "http://www.w3.org/Graphics/SVG/1.1/DTD/svg11.dtd">
<svg xmlns="http://www.w3.org/2000/svg" xmlns:xlink="http://www.w3.org/1999/xlink" version="1.1" width="1080" height="1080" viewBox="0 0 1080 1080" xml:space="preserve">
<desc>Created with Fabric.js 5.2.4</desc>
<defs>
</defs>
<g transform="matrix(1 0 0 1 540 540)" id="f5b1ddce-6e23-49f6-89d4-ff355bca7852"  >
<rect style="stroke: none; stroke-width: 1; stroke-dasharray: none; stroke-linecap: butt; stroke-dashoffset: 0; stroke-linejoin: miter; stroke-miterlimit: 4; fill: rgb(255,255,255); fill-rule: nonzero; opacity: 1; visibility: hidden;" vector-effect="non-scaling-stroke"  x="-540" y="-540" rx="0" ry="0" width="1080" height="1080" />
</g>
<g transform="matrix(1 0 0 1 540 540)" id="a04c0564-9018-49fd-bdea-1c1d0a53cfa2"  >
</g>
<g transform="matrix(2.09 0 0 2.09 540 540)"  >
<path style="stroke: rgb(0,0,0); stroke-width: 0; stroke-dasharray: none; stroke-linecap: butt; stroke-dashoffset: 0; stroke-linejoin: miter; stroke-miterlimit: 4; fill: rgb(210,104,204); fill-rule: nonzero; opacity: 1;" vector-effect="non-scaling-stroke"  transform=" translate(-256, -256)" d="M 502.198 263.697 C 492.386 148.068 375.395 65.876 259.027 65.876 C 105.86499999999998 65.876 116.018 116.01500000000001 98.945 117.436 C 57.128 120.813 0 169.687 0 226.746 C 0 283.894 23.702 339.61 92.638 339.61 C 88.44200000000001 363.283 96.80300000000001 401.634 171.258 401.634 C 206.92200000000003 401.634 257.11 401.634 274.40700000000004 401.634 C 274.40700000000004 458.00300000000004 359.44100000000003 444.774 389.30500000000006 444.774 C 419.24600000000004 444.774 424.12300000000005 412.712 418.66300000000007 404.389 C 511.99 403.679 525.092 306.224 502.198 263.697 z M 367.112 114.661 L 393.559 114.661 C 399.24300000000005 114.661 403.867 119.295 403.867 125.027 C 403.867 130.887 399.243 135.55 393.559 135.55 L 367.112 135.55 C 361.252 135.55 356.61 130.887 356.61 125.02700000000002 C 356.61 119.295 361.252 114.661 367.112 114.661 z M 290.477 150.881 C 292.33599999999996 150.881 294.039 150.881 295.626 150.881 C 301.135 150.881 302.566 149.966 302.566 149.966 C 303.082 148.96300000000002 303.082 145.09900000000002 303.082 142.656 L 303.082 112.15100000000001 C 303.082 106.44700000000002 307.637 101.73500000000001 313.448 101.73500000000001 C 319.142 101.73500000000001 323.834 106.44700000000002 323.834 112.15100000000001 L 323.834 142.491 C 323.94100000000003 145.09900000000002 323.94100000000003 148 323.532 150.88100000000003 L 358.01 150.88100000000003 C 359.07 150.88100000000003 360.21999999999997 150.83200000000002 361.601 150.83200000000002 C 369.973 150.48200000000003 382.646 150.11200000000002 391.971 159.05700000000002 C 398.025 164.907 401.199 173.66700000000003 401.199 184.997 L 401.199 221.69400000000002 C 401.199 225.14000000000001 401.07300000000004 232.323 402.98 234.299 C 403.86600000000004 235.126 405.978 235.185 406.738 235.185 L 460.479 235.185 C 466.125 235.185 470.757 239.935 470.757 245.649 C 470.757 251.499 466.124 256.152 460.479 256.152 L 406.738 256.152 C 397.179 256.152 391.32 252.29799999999997 388.166 249.046 C 380.077 240.821 380.106 228.712 380.33 221.519 L 380.33 219.96200000000002 L 380.33 184.997 C 380.33 179.722 379.27799999999996 175.78900000000002 377.467 174.01800000000003 C 374.615 171.26300000000003 367.812 171.49700000000004 362.303 171.74000000000004 C 360.735 171.74000000000004 359.334 171.85600000000005 358.01 171.85600000000005 L 289.61 171.85600000000005 C 289.61 171.85600000000005 289.502 171.74000000000004 289.279 171.74000000000004 C 280.606 171.74000000000004 268.235 171.74000000000004 264.924 175.00000000000003 C 264.71999999999997 175.24300000000002 263.941 175.85700000000003 263.941 178.49400000000003 L 263.941 235.45600000000002 C 263.941 241.26800000000003 259.20099999999996 245.96900000000002 253.52599999999998 245.96900000000002 C 247.76299999999998 245.96900000000002 243.081 241.26800000000003 243.081 235.45600000000002 L 243.081 178.49400000000003 C 243.081 169.21800000000002 247.053 163.40600000000003 250.225 160.19500000000002 C 259.942 150.657 276.276 150.706 290.477 150.881 z M 199.174 92.303 C 199.174 86.551 203.856 81.83 209.52100000000002 81.83 C 215.36200000000002 81.83 220.02300000000002 86.55 220.02300000000002 92.303 L 220.02300000000002 103.80799999999999 L 237.53500000000003 103.80799999999999 C 243.20000000000002 103.80799999999999 247.88200000000003 108.568 247.88200000000003 114.243 C 247.88200000000003 120.054 243.20000000000005 124.746 237.53500000000003 124.746 L 220.02300000000002 124.746 L 220.02300000000002 139.688 C 220.02300000000002 145.381 215.36100000000002 150.161 209.52100000000002 150.161 C 203.85600000000002 150.161 199.174 145.381 199.174 139.688 L 199.174 92.303 z M 96.482 144.584 L 139.81799999999998 144.584 C 149.79399999999998 144.496 162.302 144.40800000000002 171.55899999999997 153.69400000000002 C 178.69499999999996 160.71200000000002 182.13999999999996 171.35200000000003 182.13999999999996 186.38000000000002 L 182.13999999999996 197.43800000000002 L 198.50299999999996 197.43800000000002 C 204.27499999999995 197.43800000000002 208.87899999999996 202.217 208.87899999999996 207.989 C 208.87899999999996 213.741 204.27499999999995 218.443 198.50299999999996 218.443 L 182.14 218.443 L 182.14 227.107 C 182.14 232.869 177.41 237.6 171.74399999999997 237.6 C 165.86499999999998 237.6 161.21199999999996 232.87 161.21199999999996 227.107 L 161.21199999999996 186.38 C 161.21199999999996 177.522 159.66399999999996 171.351 156.85199999999995 168.606 C 153.68799999999996 165.268 146.95199999999994 165.268 139.86599999999996 165.51999999999998 L 96.482 165.51999999999998 C 90.564 165.51999999999998 86.02799999999999 160.79999999999998 86.02799999999999 154.998 C 86.028 149.323 90.564 144.584 96.482 144.584 z M 87.77 236.909 L 87.77 255.968 C 87.77 261.779 83.166 266.432 77.228 266.432 C 71.514 266.432 66.91 261.779 66.91 255.96800000000002 L 66.91 236.90900000000002 L 40.366 236.90900000000002 C 34.585 236.90900000000002 29.863999999999997 232.187 29.863999999999997 226.43500000000003 C 29.863999999999997 220.66300000000004 34.586 215.93200000000002 40.366 215.93200000000002 L 113.594 215.93200000000002 C 119.22099999999999 215.93200000000002 124.01899999999999 220.662 124.01899999999999 226.435 C 124.01899999999999 232.187 119.22099999999999 236.909 113.594 236.909 L 87.77 236.909 z M 141.16 305.679 C 135.164 311.548 132.31199999999998 320.13399999999996 132.31199999999998 331.96999999999997 C 132.31199999999998 337.63399999999996 127.56199999999998 342.43399999999997 121.85799999999998 342.43399999999997 C 116.01799999999997 342.43399999999997 111.43299999999998 337.635 111.43299999999998 331.96999999999997 C 111.43299999999998 314.546 116.50399999999998 300.695 126.47199999999998 290.86299999999994 C 144.24599999999998 273.3229999999999 172.21999999999997 273.77099999999996 188.856 274.02399999999994 C 190.666 274.02399999999994 192.165 274.02399999999994 193.636 274.02399999999994 L 277.951 274.02399999999994 C 291.15000000000003 274.02399999999994 300.757 271.13399999999996 306.189 265.3519999999999 C 315.086 255.9679999999999 314.365 239.3919999999999 313.72200000000004 225.9199999999999 C 313.58700000000005 222.6879999999999 313.45000000000005 219.6519999999999 313.45000000000005 217.0039999999999 C 313.45000000000005 211.1829999999999 318.05400000000003 206.5499999999999 323.74800000000005 206.5499999999999 C 329.64700000000005 206.5499999999999 334.31000000000006 211.1829999999999 334.31000000000006 217.0039999999999 C 334.31000000000006 219.3299999999999 334.4460000000001 222.1039999999999 334.58200000000005 225.05399999999992 C 335.35200000000003 240.50199999999992 336.39200000000005 263.88199999999995 321.48100000000005 279.6699999999999 C 311.77600000000007 289.8319999999999 297.18500000000006 294.9319999999999 277.951 294.9319999999999 L 193.63600000000002 294.9319999999999 C 192.08800000000002 294.9319999999999 190.35600000000002 294.9319999999999 188.526 294.9319999999999 C 174.275 294.737 152.646 294.406 141.16 305.679 z M 249.303 350.687 L 249.303 371.55600000000004 C 249.303 377.40700000000004 244.641 382.00100000000003 238.869 382.00100000000003 C 233.11599999999999 382.00100000000003 228.473 377.40700000000004 228.473 371.55600000000004 L 228.473 350.687 L 188.00900000000001 350.687 C 182.31500000000003 350.687 177.526 346.014 177.526 340.223 C 177.526 334.54900000000004 182.31400000000002 329.778 188.00900000000001 329.778 L 320.331 329.778 C 326.16200000000003 329.778 330.74600000000004 334.548 330.74600000000004 340.223 C 330.74600000000004 346.014 326.16200000000003 350.687 320.331 350.687 L 249.303 350.687 z M 390.025 402.247 L 328.041 402.247 C 322.278 402.247 317.596 397.60400000000004 317.596 391.862 C 317.596 386.05 322.278 381.38800000000003 328.041 381.38800000000003 L 364.251 381.38800000000003 L 364.251 361.94 C 364.251 356.022 368.91299999999995 351.466 374.695 351.466 C 380.516 351.466 385.11 356.022 385.11 361.94 L 385.11 381.388 L 390.026 381.388 C 395.749 381.388 400.451 386.04999999999995 400.451 391.86199999999997 C 400.45 397.604 395.748 402.247 390.025 402.247 z M 417.105 329.779 L 417.105 312.715 L 368.757 312.715 C 363.01300000000003 312.715 358.303 308.131 358.303 302.349 C 358.303 296.577 363.013 291.846 368.757 291.846 L 441.809 291.846 C 447.69800000000004 291.846 452.36 296.577 452.36 302.349 C 452.36 308.131 447.69800000000004 312.715 441.809 312.715 L 438.052 312.715 L 438.052 329.779 C 438.052 335.669 433.36 340.224 427.607 340.224 C 421.845 340.224 417.105 335.669 417.105 329.779 z M 470.758 377.806 L 444.33099999999996 377.806 C 438.49999999999994 377.806 433.837 373.251 433.837 367.44 C 433.837 361.629 438.5 357.034 444.331 357.034 L 470.75800000000004 357.034 C 476.61800000000005 357.034 481.32900000000006 361.629 481.32900000000006 367.44 C 481.32900000000006 373.251 476.618 377.806 470.758 377.806 z" stroke-linecap="round" />
</g>
<g transform="matrix(0 0 0 0 0 0)"  >
<g style=""   >
</g>
</g>
<g transform="matrix(0 0 0 0 0 0)"  >
<g style=""   >
</g>
</g>
</svg>